<?xml version="1.0" encoding="utf-8"?><!-- Uploaded to: SVG Repo, www.svgrepo.com, Generator: SVG Repo Mixer Tools -->
<svg width="800px" height="800px" viewBox="-1.02 0 60.025 60.025" xmlns="http://www.w3.org/2000/svg">
  <g id="Group_1" data-name="Group 1" transform="translate(-150.179 -283.369)">
    <path id="Path_3" data-name="Path 3" d="M152.179,312.342h45.594v5.644l-3.375,5.283-3.375,6.25-8.125,2.375-8.625,2.875-8.525-2.626-5.533-3.174-5.316-5.413-2.27-6.853Z" fill="#d1d3d4"/>
    <path id="Path_4" data-name="Path 4" d="M198.536,312.342A21.236,21.236,0,0,1,177.3,333.576h-3.888a21.235,21.235,0,0,1-21.234-21.234V304.11h46.357Z" fill="none" stroke="#231f20" stroke-linecap="round" stroke-linejoin="round" stroke-width="4"/>
    <line id="Line_16" data-name="Line 16" x2="46.357" transform="translate(152.179 341.394)" fill="#ffffff" stroke="#231f20" stroke-linecap="round" stroke-linejoin="round" stroke-width="4"/>
    <path id="Path_5" data-name="Path 5" d="M198.536,308.394h6.884s4.5,13.336-9.072,13.336" fill="none" stroke="#231f20" stroke-linecap="round" stroke-miterlimit="10" stroke-width="4"/>
    <path id="Path_6" data-name="Path 6" d="M158.306,295.325c1.676-6.414,5.518-3.71,6.383-9.69" fill="#ffffff" stroke="#231f20" stroke-linecap="round" stroke-linejoin="round" stroke-width="4"/>
    <path id="Path_7" data-name="Path 7" d="M172.274,295.325c1.677-6.414,5.519-3.71,6.383-9.69" fill="#ffffff" stroke="#231f20" stroke-linecap="round" stroke-linejoin="round" stroke-width="4"/>
    <path id="Path_8" data-name="Path 8" d="M186.274,295.325c1.677-6.414,5.519-3.71,6.383-9.69" fill="#ffffff" stroke="#231f20" stroke-linecap="round" stroke-linejoin="round" stroke-width="4"/>
  </g>
</svg>