<?xml version="1.0" standalone="no"?><svg xmlns="http://www.w3.org/2000/svg" viewBox="0 0 1440 320"><path fill="#273036" fill-opacity="1" d="M0,128L30,154.7C60,181,120,235,180,245.3C240,256,300,224,360,197.3C420,171,480,149,540,165.3C600,181,660,235,720,250.7C780,267,840,245,900,197.3C960,149,1020,75,1080,74.7C1140,75,1200,149,1260,186.7C1320,224,1380,224,1410,224L1440,224L1440,0L1410,0C1380,0,1320,0,1260,0C1200,0,1140,0,1080,0C1020,0,960,0,900,0C840,0,780,0,720,0C660,0,600,0,540,0C480,0,420,0,360,0C300,0,240,0,180,0C120,0,60,0,30,0L0,0Z"></path></svg>